# xmcd
#
# Track frame offsets: 
#        150
#        14317
#        28154
#        39398
#        49136
#        65445
#        80292
#        94750
#        104138
#        114400
#
# Disc length: 1689 seconds
#
# Revision: 0
# Processed by: cddbd v1.5.2PL0 Copyright (c) Steve Scherf et al.
# Submitted via: ExactAudioCopy v0.95b3
#
DISCID=7d06970a
DTITLE=Booker T and The M.G.s - The Best of Booker T. and The M.G.s
DYEAR=2000
DGENRE=Soul
TTITLE0=Green Onions
TTITLE1=Hip Hugger
TTITLE2=Jellybread
TTITLE3=Chinese Checkers
TTITLE4=Soul Dressing
TTITLE5=Groovin'
TTITLE6=Boot-Leg
TTITLE7=Behave Yourself
TTITLE8=Home Grown
TTITLE9=Mo' Onions
EXTD=
EXTT0=
EXTT1=
EXTT2=
EXTT3=
EXTT4=
EXTT5=
EXTT6=
EXTT7=
EXTT8=
EXTT9=
PLAYORDER=
